<svg id="Layer_1" data-name="Layer 1" xmlns="http://www.w3.org/2000/svg" viewBox="0 0 188.71 83.98"><defs><style>.cls-1{fill:#fff;}</style></defs><title>nicole-logo</title><path d="M-114.45-12.6c-1.88,1.26-3.9.71-5.88.61-.55,0-1.1.07-1.65.06-1.53,0-3.07-.05-4.6-.1-.31,0-.67-.22-.92-.11-3.13,1.35-5.72.65-7.85-2.07-2.81,3.25-6.2,3.37-9.89,2a1.85,1.85,0,0,0-1.31.08c-1.06.53-1.68.1-2.08-.81a25.56,25.56,0,0,1-1.29-3.38c-.13-.46-.05-1.34.23-1.49a2,2,0,0,1,1.7,0,30.17,30.17,0,0,1,2.35,1.91,5.64,5.64,0,0,0,5,1.12c.68-.19,1.22-.9,1.81-1.37-.54-.58-1-1.42-1.64-1.71-1.36-.58-2.87-.82-4.28-1.31A14,14,0,0,1-148-20.57a4.32,4.32,0,0,1,.22-7.38c2.22-1.42,4.57-1.29,7-.6.71.21,1.23.39,1.91-.27s1.52-.26,1.88.57a34.62,34.62,0,0,1,1.49,4.06A1.34,1.34,0,0,1-136-23a1.81,1.81,0,0,1-1.46,0,14.28,14.28,0,0,1-1.67-1.37,6.51,6.51,0,0,0-5.69-1.41c-.52.12-.93.69-1.4,1.06.39.37.7.91,1.16,1.09,1.35.51,2.78.81,4.12,1.33,1.76.68,3.48,1.5,5.36,2.32a5.2,5.2,0,0,1,4.19-3.15c2-.18,4-.18,5.44,1.61.58-2.28.4-2.75-1.87-4.42a36.92,36.92,0,0,1,3.54-2.48c1-.53,1.78.17,1.83,1.46s0,2.68,0,3.84a33.05,33.05,0,0,1,4,0c1.58.2,1.83,1.64,2.21,2.89,3.45-3.67,5.85-4,9.33-1.43.65-.39,1.3-.82,2-1.18.33-.18.8-.45,1.07-.34,2,.8,4.06-.24,6.14.18s4.23-.05,6.34.08a7.83,7.83,0,0,0,3.74-.2c1.36-.54,1.44.94,1.62,1.9.85-.57,1.62-1.11,2.42-1.6.32-.19.83-.48,1.06-.36,1.45.81,2.84-.12,4.26-.08,2.17.08,3.29,1.08,3.37,3.27.06,1.62,0,3.24,0,5.19.9-1.07,1.7-1.65,1-3a4,4,0,0,1,1.2-4.46,5.12,5.12,0,0,1,5.31-.58c.43.21.82.49,1.26.75,1.25-.74,2.52-1.2,3.95-.43.22.12.63,0,.91-.15a5.57,5.57,0,0,1,6.72,1.09c.74-.43,1.46-.9,2.23-1.27.41-.2,1.08-.47,1.33-.28,1,.73,1.65.05,2.42-.35,2.88-1.51,5.88-2.41,9.17-1.7a4.15,4.15,0,0,1,1.09.38c1.36.7,1.82,1.7,1.25,2.62s-2.51,1.47-3.31.53c-1.71-2-3.52-1.17-5.39-.56a6.29,6.29,0,0,0-.92.41C-50-20.17-50.76-18.67-50-15c.08.36.51.63.71,1s.67,1,.58,1.32a1.47,1.47,0,0,1-1.15.84c-1.54-.06-3.08-.31-4.63-.45a2.16,2.16,0,0,0-1,.22,6,6,0,0,1-6.31-.44c-2-1.38-2.53-3.42-2.29-5.73.07-.63.46-1.4-.88-1.35a4.42,4.42,0,0,1-3.46,4.78c1.09.35,2.09.6,3,1a3,3,0,0,1,2,2.75,3,3,0,0,1-1.69,2.82,8.68,8.68,0,0,1-8.19.3c-1.44-.67-1.76-1.52-1.6-3.88-2.15.54-4.2-.27-6.4,0-3,.31-6-.09-9.06-.1-2.15,0-4.31.14-6.46.2a4.08,4.08,0,0,1-1.44,0c-.59-.19-1.39-.45-1.6-.92a2.14,2.14,0,0,1,.36-1.8c1.11-1.39,2.38-2.66,3.58-4,.44-.49.87-1,1.31-1.51l-.17-.44a6.87,6.87,0,0,0-2.16.81c-.85.74-1.57,1.06-2.53.29a.5.5,0,0,0-.13,0c-2.39-.5-3-1.45-3,2,0,1.88.31,3.44,2,4.66-2.09,1.38-4.06,1-6,.66-.35-.06-.8-.3-1-.17C-110-11-112.26-11.37-114.45-12.6Zm-33.08.11c1.05-1.33,2-.65,3.06-.42a16.27,16.27,0,0,0,4.81.41,4.33,4.33,0,0,0,3.87-3.57c.31-1.74-.6-3.41-2.54-4.44a13.9,13.9,0,0,0-2.42-.93c-1.56-.5-3.14-.92-4.68-1.46-.86-.3-1.82-.72-1.7-1.87a2.21,2.21,0,0,1,2-1.92A7.82,7.82,0,0,1-138-24.61a16.31,16.31,0,0,0,1.43,1l.32-.35L-138-28.58l-1.16,1.33c-1.44-.34-2.73-.72-4.05-.95a5.62,5.62,0,0,0-4.69,1.41,3.48,3.48,0,0,0,1.12,5.9c2.18,1,4.56,1.49,6.84,2.26,1.16.39,2.12,1.1,2,2.48s-1.13,2-2.43,2.27c-2.95.58-5.25-.66-7.32-2.58a11.73,11.73,0,0,0-1.34-.92l-.3.34Zm75-.22c-.34.3-.59.51-.82.74-1.19,1.14-1.07,2.43.41,3.13a7.68,7.68,0,0,0,7.46-.3,2.13,2.13,0,0,0-.19-4A18.27,18.27,0,0,0-69-13.9l-3.13-.7c.52-1.59,1.53-1.26,2.4-1.23,2.42.1,3.69-1,3.79-3.43,0-1.14.52-1.52,1.65-1.35a3.86,3.86,0,0,0,1.66-.29c.07,0,0-.83-.07-.85A8.86,8.86,0,0,0-64.48-22a.85.85,0,0,0-.52.23c-.84.72-1.51.55-2.36-.13a3.89,3.89,0,0,0-4.48,0,3.14,3.14,0,0,0-1.35,3.41,10.23,10.23,0,0,0,1,2.11C-74.3-14.76-74.39-14.11-72.52-12.71Zm-50.76-14.95-.51-.22-2.52,1.64-.09.35c1.6.16,1.51,1.2,1.5,2.24,0,2.45,0,4.91,0,7.37,0,1.26.27,2.65-1.31,3.39h4.08l.32-.27c-1.86-.57-1.42-1.95-1.45-3.15,0-.77,0-1.54,0-2.31a2.67,2.67,0,0,1,3.45-2.77c.42.1,1.11.65,1.08.93-.28,2.53,1.42,5.42-1.44,7.54h4.47c-1.46-.83-1.37-2.11-1.34-3.39a36,36,0,0,0-.07-3.6c-.17-2.1-1-2.77-3-2.47a25.51,25.51,0,0,0-3.12.88v-6.16Zm48.86,14.82.2-.31c-1.65-.61-1.6-1.9-1.55-3.23s0-2.51,0-3.76c-.08-1.56-.83-2.35-2.36-2.25a26.68,26.68,0,0,0-3.77.75l-.59-.89-2.62,1.66c.64.45,1.43.78,1.41,1-.23,2.32,1.14,4.93-1.15,6.91h3.69a24.87,24.87,0,0,1-.8-2.93A16,16,0,0,1-82-18.46c0-2.08.8-2.89,2.92-3,1.2-.06,1.82.46,1.82,1.67,0,1,0,2,0,3,0,1.43.44,3-1.4,3.91Zm20.05-2.59c-.4.35-.79.72-1.2,1.06a3.59,3.59,0,0,1-3.74.86,3.19,3.19,0,0,1-2.11-3c-.14-1.75,0-1.91,1.74-1.91h5.26c-.15-2.55-1.71-4.07-4-4.12a4.75,4.75,0,0,0-4.93,4.48,4.93,4.93,0,0,0,3.73,5.57C-57.11-11.9-54.83-13-54.37-15.43Zm-52.49-3a3.88,3.88,0,0,0-2.33-3.79,5.19,5.19,0,0,0-5.23,1.14,5.67,5.67,0,0,0-.71,6.34,5.28,5.28,0,0,0,5.53,2.28,3.75,3.75,0,0,0,3-3.15,14.53,14.53,0,0,0-1.18,1,3.6,3.6,0,0,1-3.93,1.12,3.28,3.28,0,0,1-2.15-3.13c-.18-1.67-.11-1.79,1.65-1.79Zm16.76-3.17-.26-.41a12.75,12.75,0,0,0-1.37-.15c-1.54,0-3.08,0-4.62,0s-2.05.5-2.08,2.6c1.62-2.12,3.67-1.78,6-1.64-.47.55-.75.92-1.06,1.26-1.69,1.85-3.4,3.67-5.07,5.54a4.94,4.94,0,0,0-.58,1.25,4.63,4.63,0,0,0,1.29.42c1.83.05,3.66.05,5.49,0,1.34,0,2.2-1.32,1.75-3-1.51,2.79-3.91,2.12-6.53,2.09C-94.66-16.5-92.38-19-90.1-21.59Zm36,.75c2.34,1.21,2.35,6.06.23,7.93h4.22a7,7,0,0,1-1.21-2c-.85-4.27.13-6.09,4.11-7.89a16.24,16.24,0,0,1,2.31-.81c1.59-.41,3.14-.62,4.29,1a1.21,1.21,0,0,0,1,.45,6,6,0,0,0,1.43-.77c-.26-.37-.43-.91-.78-1.07a7.14,7.14,0,0,0-2.34-.63,13.74,13.74,0,0,0-9,2.88,6.9,6.9,0,0,1-.86.45l-.45-1.34Zm-71.74,1.69a2.39,2.39,0,0,1-3.58-.7c-1-1.33-2-1.27-2.55.23a7,7,0,0,0-.24,3.62c.5,2.06,2.39,2.48,4,1.12.7-.58,1.47-1.08,2.34-1.71Zm-.26,4-.34-.22-1.26,1.11c-2,1.67-4.41,1.2-5.21-1.24a7.72,7.72,0,0,1,0-4.05,3.15,3.15,0,0,1,1.95-2c.64-.16,1.54.77,2.33,1.22a8.24,8.24,0,0,0,1.43.77c.15,0,.69-.48.65-.6-.19-.56-.41-1.37-.84-1.53a9.62,9.62,0,0,0-3.31-.67,4.38,4.38,0,0,0-4.42,3.78,5.12,5.12,0,0,0,2.78,5.79,5.16,5.16,0,0,0,6.1-1.62A2.43,2.43,0,0,0-126.07-15.13Zm19.57,2.27h4.32c-1.66-1.2-1.18-2.88-1.2-4.4,0-3.51,0-3.48,3.45-3.24.38,0,.8-.47,1.2-.72-.28-.38-.57-1.08-.84-1.07a11.66,11.66,0,0,0-2.57.54,5.72,5.72,0,0,0-1,.51l-.74-1.3-2.65,1.67C-104.22-19.64-104.2-14.64-106.5-12.86ZM-80-13.64c2.36-.31,1.87-2,1.88-3.42,0-.67,0-1.35,0-2,0-1.43-.38-1.71-1.73-1.36a1.47,1.47,0,0,0-1.31,1.74,13.37,13.37,0,0,1,0,2.45C-81.25-15-81-14.08-80-13.64Zm-39.47-3.61h0c0-.82,0-1.64,0-2.44a1.11,1.11,0,0,0-.59-.81,1.82,1.82,0,0,0-2.33,1.7,19.51,19.51,0,0,0,.07,3.59c.11.58.86,1.05,1.32,1.57a7,7,0,0,0,1.51-1.62A5.07,5.07,0,0,0-119.48-17.25Zm66.23-1.84c-.53,1.45-.68,1.58-2.11,1.6-1.67,0-3.34,0-5.08,0-.26,1.38,0,2.46,1.17,3.08A2.6,2.6,0,0,0-56-15.11c.78-.87,1.53-1.44,2.75-.69Zm-59.6,1.61c-.15,1.48.06,2.6,1.3,3.15a2.51,2.51,0,0,0,3.13-.8,2.15,2.15,0,0,1,2.73-.82v-2c-1.09.16-2.2.4-3.32.47S-111.5-17.48-112.85-17.48Zm22.71,4.6h4.39c-2.5-2.9-.43-6.44-1.57-9.72l-2.74,1.76C-87.88-19.6-87.94-14.59-90.14-12.88Zm-5.08-1.69c1.35.14,2.43.34,3.14-.69s1.45-1.52,2.71-.53c0-1.22.06-2.17,0-3.11s-.72-1.11-1.3-.54C-92.2-17.93-93.6-16.32-95.22-14.57ZM-86.07-20c0,1.76,0,3.42,0,5.07,0,.28.59.54.91.82.23-.3.63-.59.66-.91.08-1,0-2,0-3S-84.72-19.79-86.07-20Z" transform="translate(225.5 77.62)"/><path d="M-135.22.93a4.68,4.68,0,0,1-1.7-4.59A3.89,3.89,0,0,1-133.28-7c2.59-.26,4.12.5,4.86,2.43,1.13,2.91.07,6.08-2.76,8.1a16.18,16.18,0,0,1-7.44,2.55c-8.69,1.23-16.1-2-23-6.71-9.62-6.55-17.34-15.06-23.75-24.65-6.69-10-12.85-20.38-19.22-30.6-2.47-4-4.9-8-7.35-12-.25-.39-.52-.77-.94-1.4a6.17,6.17,0,0,0-.2,1q0,13.3.08,26.62c0,.43,0,.86,0,1.3.12,2.12.88,3,3,3.5a8.7,8.7,0,0,0,1.42.28c1.55.12,1.66,1.18,1.62,2.38s-.91,1.48-2,1.47c-4.49,0-9,0-13.46,0-3.07,0-3.34.67-2.86-3.61,1-.16,2.07-.27,3.09-.52a3.17,3.17,0,0,0,2.85-3.44c.07-1.4,0-2.8,0-4.2q0-11.79,0-23.58c0-4.15-.38-4.6-4.4-5.62-.81-.2-1.84-.08-1.79-1.53.07-2.2.18-2.29,2.38-2.26,4.34.06,8.68,0,13-.09,1.07,0,1.32.61,1.7,1.24q8,13.3,16,26.62c.46.77.94,1.53,1.61,2.64,0-.8.1-1.2.1-1.6q0-9.91,0-19.82c0-3.68-.51-4.31-4.09-5.09-1.08-.24-1.9-.6-1.94-1.91s.32-1.94,1.79-1.95c4.15,0,8.29,0,12.44,0a16.63,16.63,0,0,0,2.45-.09,1.29,1.29,0,0,1,1.64,1.35c0,.84.56,2-.91,2.34-.76.17-1.5.37-2.24.58-2,.56-2.72,1.36-2.78,3.48-.07,3.09-.07,6.17-.07,9.26,0,7.57,0,15.14,0,22.71a4.1,4.1,0,0,0,.43,2.07c5.71,9.24,11.79,18.21,19.53,25.92A48.62,48.62,0,0,0-151.16.15C-147,2.13-142.67,3.33-138,2A29.37,29.37,0,0,0-135.22.93ZM-214-72l.39,0,.69,1.08q11.4,18.62,22.82,37.22c6.15,10,13.18,19.26,22,27,6.81,6,14.16,11.06,23.51,12.1A21.15,21.15,0,0,0-133,3.61a6.87,6.87,0,0,0,4.13-5.23c.49-3.07-1.43-5-4.45-4.54A3,3,0,0,0-136-3.91,3.31,3.31,0,0,0-135-.13c.32.25.6.55,1.24,1.14a35.81,35.81,0,0,1-4.17,1.83c-3.87,1.13-7.65.44-11.31-1-6-2.3-10.91-6.27-15.44-10.73-8-7.86-14.24-17.08-20.11-26.57a4.39,4.39,0,0,1-.47-2.2c0-7.38,0-14.75,0-22.13,0-3.43,0-6.85.09-10.27a3.71,3.71,0,0,1,3-3.93c.55-.17,1.12-.29,1.68-.44,1.46-.38,1.62-.75,1-2.2-5,0-10,0-15,0-.42,0-1.06.17-1.2.46a1.43,1.43,0,0,0,.2,1.32c.27.3.87.34,1.33.44,3.45.77,4.42,2,4.42,5.49q0,11.3,0,22.57v1.95A4,4,0,0,1-191-45.68q-9-14.93-18-29.83a2.16,2.16,0,0,0-1.43-1c-3.23-.08-6.46,0-9.69,0h-4.39c-.57,1.45.06,1.93,1.34,2.21,3.81.84,4.63,1.89,4.64,5.75,0,4.91,0,9.83,0,14.75,0,4.44,0,8.87,0,13.31,0,2.77-1.14,4-3.82,4.63-.74.17-1.49.29-2.22.43v2c5.37,0,10.66,0,16,0,.26,0,.66-.47.73-.79.31-1.33-.77-1.3-1.58-1.47-3.47-.72-4.36-1.77-4.42-5.29,0-.48,0-1,0-1.45l-.12-26Z" transform="translate(225.5 77.62)"/><path d="M-139.09-39.35l-.67,1c-3.38,5.42-9,7.78-15.46,6.45A14.44,14.44,0,0,1-166.6-44.08c-.72-5.37.21-10.31,4.24-14.26,4.78-4.68,14.15-5.44,19.43-1.48a9.17,9.17,0,0,1,2.55,3.37,3.39,3.39,0,0,1-1.09,4.15,3.9,3.9,0,0,1-4.6-.11,11.92,11.92,0,0,1-2.13-2.7c-2.29-3.67-6-4-8.83-.67-3.7,4.27-3.5,13.24.39,17.34,3.15,3.33,8.47,3.33,12.12,0,2.71-2.47,3.6-5.68,3.87-9.21a19.8,19.8,0,0,1,1-5.36c2.13-5.68,6.49-8.64,12.4-9.12a21.44,21.44,0,0,1,7.27.66c6.72,1.86,10.54,8,10.13,15.65-.52,9.71-8.32,15.12-17.48,14.17A14.4,14.4,0,0,1-139.09-39.35Zm-.06-2.16c3.16,6.1,6,8.27,12,9,6.5.75,13.77-2,15.88-9.94a21.44,21.44,0,0,0,.49-6.3,12.73,12.73,0,0,0-9.51-11.94,23.1,23.1,0,0,0-7.14-.58,13,13,0,0,0-12,10.27c-.38,1.73-.43,3.53-.64,5.3a12.08,12.08,0,0,1-4.55,8.42A9.35,9.35,0,0,1-157.33-38c-4.15-4.46-4.31-13.77-.37-18.41,2.48-2.91,7.5-4.18,10.18.78a9.68,9.68,0,0,0,1.83,2.39A3.13,3.13,0,0,0-142-53a2.61,2.61,0,0,0,.82-3.36,9.16,9.16,0,0,0-2.63-3.12c-5-3.38-13.58-2.52-17.9,1.69-3.85,3.76-4.71,8.46-4,13.58.81,6.11,5.43,10.6,11.93,11.64a13,13,0,0,0,14-7.46Z" transform="translate(225.5 77.62)"/><path d="M-94.5-48.64c-.25,2.85-.23,5.47.93,8a8.3,8.3,0,0,0,11.82,3.43,20.87,20.87,0,0,0,4.44-4c1.07-1.12,2.23-1.31,3.75-.09,1,.79.28,1.62-.18,2.39-3.6,6-8.69,8.28-15.83,7.16a13.78,13.78,0,0,1-11.75-11.06c-1.31-6.35-.21-12.21,5.11-16.48,4.6-3.69,9.85-3.88,15.15-1.66,3.16,1.32,5,4,6,7.19.29.87.49,1.77.7,2.66.52,2.18.23,2.53-2.07,2.53H-94.5Zm20.59,8.11c-2-1.15-2-1.13-3.26.44a18.81,18.81,0,0,1-2,2.13C-83.65-33.85-93-33.8-95-42.41A38.21,38.21,0,0,1-95.47-48c-.1-1.19.36-1.56,1.56-1.55,5.74.06,11.48,0,17.21,0h1.82c-.63-3.72-1.56-7-4.4-9.39a8,8,0,0,0-2-1.33c-5-2.07-10-2-14.33,1.49-5.14,4.09-6.23,9.75-4.83,15.81,2,8.86,10,11.09,15.92,10.42C-79.5-33.11-76.19-36-73.91-40.53Z" transform="translate(225.5 77.62)"/><path d="M-102.53-57.44c0,5.88-.06,11.76,0,17.65,0,2.57.27,2.79,2.76,3.49,1.41.4,1.43,1.4,1.34,2.48s-.92,1.18-1.8,1.18c-3.71,0-7.43,0-11.14,0-1,0-1.84-.14-1.86-1.43,0-1.12,0-2,1.56-2.23,2.06-.25,2.46-.79,2.75-2.88a17.08,17.08,0,0,0,.1-2q0-12.88,0-25.76c0-2.48-.08-2.51-2.57-2.77-.57-.06-1.52-.53-1.55-.86-.06-.82,0-2.06.57-2.44a36,36,0,0,1,6.67-4c2.66-1.11,3-.66,3,2,0,5.88,0,11.77,0,17.65Zm-10-13.58.47.39,1.43.08c2,.16,2.48.64,2.6,2.69,0,.38,0,.77,0,1.16q0,12.44,0,24.88a23.88,23.88,0,0,1-.21,3.17c-.26,2-.89,2.71-2.88,3-1.33.23-1.53.84-1.17,2h12.85c.36-1.17.08-1.75-1.12-2-2-.46-2.65-1.29-2.81-3.32-.13-1.68-.2-3.37-.2-5.05q0-15.34,0-30.68v-2.14a14.61,14.61,0,0,0-2.37.78c-1.84,1-3.67,2.13-5.42,3.32C-111.86-72.38-112.11-71.61-112.49-71Z" transform="translate(225.5 77.62)"/><path d="M-169-50.15c0,3.23,0,6.45,0,9.68,0,3,.32,3.35,3,4.25,1.25.41,1.25,1.32,1.17,2.3s-.8,1.28-1.74,1.28c-3.8,0-7.61,0-11.41,0-1,0-1.63-.25-1.66-1.32s-.17-2,1.3-2.3c2.62-.52,2.9-.7,3-3.37.17-4.38.08-8.76.1-13.15,0-1.28-.71-1.75-1.9-1.8-.93,0-2,.13-2.3-1.2s.37-2.15,1.5-2.79c1.64-.92,3.2-2,4.82-2.91a5.35,5.35,0,0,1,1.86-.71c1.71-.26,2.17.18,2.17,1.92,0,3.37,0,6.75,0,10.12Zm-.89-11.47a12,12,0,0,0-2.49.7c-1.81,1-3.59,2.08-5.29,3.25-.46.31-.62,1.05-.91,1.59a5.42,5.42,0,0,0,1.42.59c2.23.27,2.74.58,2.76,2.69q.06,7.06-.17,14.15c-.05,1.87-1,2.78-2.86,3-1.29.18-1.67.73-1.14,2.06,3.81,0,7.65,0,11.49,0,.49,0,1.27-.32,1.4-.68.34-.91-.38-1.21-1.17-1.37a3.28,3.28,0,0,1-2.85-3.18c-.08-.86-.17-1.72-.17-2.58,0-6.12,0-12.24,0-18.36Z" transform="translate(225.5 77.62)"/><path d="M-168.12-73.36a4,4,0,0,1-3.95,3.94,4,4,0,0,1-4.11-4.11,4,4,0,0,1,4.05-3.86A3.94,3.94,0,0,1-168.12-73.36Zm-3.95,3.06A3.12,3.12,0,0,0-169-73.45a3.11,3.11,0,0,0-3.25-3.14,3.23,3.23,0,0,0-3.13,3.16A3.2,3.2,0,0,0-172.07-70.3Z" transform="translate(225.5 77.62)"/><path d="M-87.71-24.81a2,2,0,0,1-2-1.88,2,2,0,0,1,1.93-1.92,1.87,1.87,0,0,1,1.87,1.81A1.87,1.87,0,0,1-87.71-24.81Zm0-3.35c-.5.61-1.11,1-1,1.33s.67.76,1,1.13c.34-.35.9-.68.94-1.06S-87.29-27.53-87.73-28.16Z" transform="translate(225.5 77.62)"/><path class="cls-1" d="M-147.53-12.49-149.36-17l.3-.34a11.73,11.73,0,0,1,1.34.92c2.07,1.92,4.37,3.16,7.32,2.58,1.3-.25,2.31-.85,2.43-2.27s-.85-2.09-2-2.48c-2.28-.77-4.66-1.3-6.84-2.26a3.48,3.48,0,0,1-1.12-5.9,5.62,5.62,0,0,1,4.69-1.41c1.32.23,2.61.61,4.05.95l1.16-1.33,1.77,4.66-.32.35a16.31,16.31,0,0,1-1.43-1,7.82,7.82,0,0,0-7.06-2.08,2.21,2.21,0,0,0-2,1.92c-.12,1.15.84,1.57,1.7,1.87,1.54.54,3.12,1,4.68,1.46a13.9,13.9,0,0,1,2.42.93c1.94,1,2.85,2.7,2.54,4.44a4.33,4.33,0,0,1-3.87,3.57,16.27,16.27,0,0,1-4.81-.41C-145.53-13.14-146.48-13.82-147.53-12.49Z" transform="translate(225.5 77.62)"/><path class="cls-1" d="M-72.52-12.71c-1.87-1.4-1.78-2,.35-3.63a10.23,10.23,0,0,1-1-2.11,3.14,3.14,0,0,1,1.35-3.41,3.89,3.89,0,0,1,4.48,0c.85.68,1.52.85,2.36.13a.85.85,0,0,1,.52-.23,8.86,8.86,0,0,1,1.78.23c.1,0,.14.84.07.85a3.86,3.86,0,0,1-1.66.29c-1.13-.17-1.61.21-1.65,1.35-.1,2.41-1.37,3.53-3.79,3.43-.87,0-1.88-.36-2.4,1.23l3.13.7a18.27,18.27,0,0,1,3.34.79,2.13,2.13,0,0,1,.19,4,7.68,7.68,0,0,1-7.46.3c-1.48-.7-1.6-2-.41-3.13C-73.11-12.2-72.86-12.41-72.52-12.71Zm2.71.28c-1.6-.11-2.7.3-2.92,1.56s1,1.78,1.94,1.85a14.07,14.07,0,0,0,3.93-.34,1.74,1.74,0,0,0,1-1.37A1.88,1.88,0,0,0-67-12,18,18,0,0,0-69.81-12.43Zm2.31-6.85c0-1.51-.82-2.45-2.06-2.43a2.43,2.43,0,0,0-2.15,2.62,2.42,2.42,0,0,0,2.06,2.55C-68.42-16.53-67.48-17.72-67.5-19.28Z" transform="translate(225.5 77.62)"/><path class="cls-1" d="M-123.28-27.66v6.16a25.51,25.51,0,0,1,3.12-.88c2-.3,2.84.37,3,2.47a36,36,0,0,1,.07,3.6c0,1.28-.12,2.56,1.34,3.39h-4.47c2.86-2.12,1.16-5,1.44-7.54,0-.28-.66-.83-1.08-.93a2.67,2.67,0,0,0-3.45,2.77c0,.77,0,1.54,0,2.31,0,1.2-.41,2.58,1.45,3.15l-.32.27h-4.08c1.58-.74,1.31-2.13,1.31-3.39,0-2.46,0-4.92,0-7.37,0-1,.1-2.08-1.5-2.24l.09-.35,2.52-1.64Z" transform="translate(225.5 77.62)"/><path class="cls-1" d="M-74.42-12.84h-4.29c1.84-.87,1.39-2.48,1.4-3.91,0-1,0-2,0-3,0-1.21-.62-1.73-1.82-1.67-2.12.1-2.93.91-2.92,3A16,16,0,0,0-82-15.87a24.87,24.87,0,0,0,.8,2.93h-3.69c2.29-2,.92-4.59,1.15-6.91,0-.24-.77-.57-1.41-1l2.62-1.66.59.89a26.68,26.68,0,0,1,3.77-.75c1.53-.1,2.28.69,2.36,2.25.06,1.25.06,2.51,0,3.76s-.1,2.62,1.55,3.23Z" transform="translate(225.5 77.62)"/><path class="cls-1" d="M-54.37-15.43c-.46,2.41-2.74,3.53-5.22,2.94a4.93,4.93,0,0,1-3.73-5.57,4.75,4.75,0,0,1,4.93-4.48c2.26.05,3.82,1.57,4,4.12h-5.26c-1.75,0-1.88.16-1.74,1.91a3.19,3.19,0,0,0,2.11,3,3.59,3.59,0,0,0,3.74-.86C-55.16-14.71-54.77-15.08-54.37-15.43Zm-6.76-4.25h4.84c-.36-1.28-1-2-2.15-2A2.56,2.56,0,0,0-61.13-19.68Z" transform="translate(225.5 77.62)"/><path class="cls-1" d="M-106.86-18.42h-5.3c-1.76,0-1.83.12-1.65,1.79a3.28,3.28,0,0,0,2.15,3.13,3.6,3.6,0,0,0,3.93-1.12,14.53,14.53,0,0,1,1.18-1,3.75,3.75,0,0,1-3,3.15,5.28,5.28,0,0,1-5.53-2.28,5.67,5.67,0,0,1,.71-6.34,5.19,5.19,0,0,1,5.23-1.14A3.88,3.88,0,0,1-106.86-18.42Zm-1.8-1.19c-.37-1.41-1.07-2.12-2.36-2.06a2.29,2.29,0,0,0-2.39,2.06Z" transform="translate(225.5 77.62)"/><path class="cls-1" d="M-90.1-21.59c-2.28,2.54-4.56,5.09-7.07,7.91,2.62,0,5,.7,6.53-2.09.45,1.72-.41,3-1.75,3-1.83,0-3.66,0-5.49,0a4.63,4.63,0,0,1-1.29-.42,4.94,4.94,0,0,1,.58-1.25c1.67-1.87,3.38-3.69,5.07-5.54.31-.34.59-.71,1.06-1.26-2.3-.14-4.35-.48-6,1.64,0-2.1.51-2.61,2.08-2.6s3.08,0,4.62,0a12.75,12.75,0,0,1,1.37.15Z" transform="translate(225.5 77.62)"/><path class="cls-1" d="M-54.07-20.84l2.94-1.75.45,1.34a6.9,6.9,0,0,0,.86-.45,13.74,13.74,0,0,1,9-2.88,7.14,7.14,0,0,1,2.34.63c.35.16.52.7.78,1.07a6,6,0,0,1-1.43.77,1.21,1.21,0,0,1-1-.45c-1.15-1.63-2.7-1.42-4.29-1a16.24,16.24,0,0,0-2.31.81c-4,1.8-5,3.62-4.11,7.89a7,7,0,0,0,1.21,2h-4.22C-51.72-14.78-51.73-19.63-54.07-20.84Z" transform="translate(225.5 77.62)"/><path class="cls-1" d="M-126.07-15.13a2.43,2.43,0,0,1-.18.74,5.16,5.16,0,0,1-6.1,1.62,5.12,5.12,0,0,1-2.78-5.79,4.38,4.38,0,0,1,4.42-3.78,9.62,9.62,0,0,1,3.31.67c.43.16.65,1,.84,1.53,0,.12-.5.64-.65.6a8.24,8.24,0,0,1-1.43-.77c-.79-.45-1.69-1.38-2.33-1.22a3.15,3.15,0,0,0-1.95,2,7.72,7.72,0,0,0,0,4.05c.8,2.44,3.25,2.91,5.21,1.24l1.26-1.11Z" transform="translate(225.5 77.62)"/><path class="cls-1" d="M-106.5-12.86c2.3-1.78,2.28-6.78,0-8l2.65-1.67.74,1.3a5.72,5.72,0,0,1,1-.51,11.66,11.66,0,0,1,2.57-.54c.27,0,.56.69.84,1.07-.4.25-.82.74-1.2.72-3.46-.24-3.48-.27-3.45,3.24,0,1.52-.46,3.2,1.2,4.4Z" transform="translate(225.5 77.62)"/><path class="cls-1" d="M-90.14-12.88c2.2-1.71,2.26-6.72.08-8l2.74-1.76c1.14,3.28-.93,6.82,1.57,9.72Z" transform="translate(225.5 77.62)"/><path class="cls-1" d="M-214-72v3.43l.12,26c0,.49,0,1,0,1.45.06,3.52,1,4.57,4.42,5.29.81.17,1.89.14,1.58,1.47-.07.32-.47.79-.73.79-5.29,0-10.58,0-16,0v-2c.73-.14,1.48-.26,2.22-.43,2.68-.59,3.79-1.86,3.82-4.63.06-4.44,0-8.87,0-13.31,0-4.92,0-9.84,0-14.75,0-3.86-.83-4.91-4.64-5.75-1.28-.28-1.91-.76-1.34-2.21h4.39c3.23,0,6.46-.06,9.69,0a2.16,2.16,0,0,1,1.43,1q9,14.9,18,29.83a4,4,0,0,0,1.13,1.33V-46.3q0-11.28,0-22.57c0-3.53-1-4.72-4.42-5.49-.46-.1-1.06-.14-1.33-.44a1.43,1.43,0,0,1-.2-1.32c.14-.29.78-.46,1.2-.46,5,0,10,0,15,0,.66,1.45.5,1.82-1,2.2-.56.15-1.13.27-1.68.44a3.71,3.71,0,0,0-3,3.93c-.09,3.42-.08,6.84-.09,10.27,0,7.38,0,14.75,0,22.13a4.39,4.39,0,0,0,.47,2.2c5.87,9.49,12.09,18.71,20.11,26.57,4.53,4.46,9.42,8.43,15.44,10.73,3.66,1.41,7.44,2.1,11.31,1A35.81,35.81,0,0,0-133.74,1c-.64-.59-.92-.89-1.24-1.14A3.31,3.31,0,0,1-136-3.91a3,3,0,0,1,2.71-2.25c3-.47,4.94,1.47,4.45,4.54A6.87,6.87,0,0,1-133,3.61a21.15,21.15,0,0,1-11.57,1.74c-9.35-1-16.7-6.11-23.51-12.1-8.84-7.78-15.87-17.06-22-27Q-201.54-52.37-212.92-71l-.69-1.08Z" transform="translate(225.5 77.62)"/><path class="cls-1" d="M-139.15-41.51l-.7,1.49a13,13,0,0,1-14,7.46c-6.5-1-11.12-5.53-11.93-11.64-.67-5.12.19-9.82,4-13.58,4.32-4.21,12.91-5.07,17.9-1.69a9.16,9.16,0,0,1,2.63,3.12A2.61,2.61,0,0,1-142-53a3.13,3.13,0,0,1-3.64-.22,9.68,9.68,0,0,1-1.83-2.39c-2.68-5-7.7-3.69-10.18-.78-3.94,4.64-3.78,14,.37,18.41a9.35,9.35,0,0,0,12.73.66A12.08,12.08,0,0,0-140-45.73c.21-1.77.26-3.57.64-5.3a13,13,0,0,1,12-10.27,23.1,23.1,0,0,1,7.14.58,12.73,12.73,0,0,1,9.51,11.94,21.44,21.44,0,0,1-.49,6.3c-2.11,7.93-9.38,10.69-15.88,9.94C-133.18-33.24-136-35.41-139.15-41.51Zm4.45-6.08a57.45,57.45,0,0,0,1.32,6.6,7.9,7.9,0,0,0,7.94,6,8.23,8.23,0,0,0,8.24-5.83,18.23,18.23,0,0,0-.13-12.61c-1.18-3.28-3.46-5.42-7.15-5.59-3.89-.17-7,1.33-8.53,5A41.47,41.47,0,0,0-134.7-47.59Z" transform="translate(225.5 77.62)"/><path class="cls-1" d="M-73.91-40.53c-2.28,4.5-5.59,7.42-10.65,8-6,.67-13.89-1.56-15.92-10.42-1.4-6.06-.31-11.72,4.83-15.81,4.35-3.46,9.29-3.56,14.33-1.49a8,8,0,0,1,2,1.33c2.84,2.38,3.77,5.67,4.4,9.39H-76.7c-5.73,0-11.47,0-17.21,0-1.2,0-1.66.36-1.56,1.55A38.21,38.21,0,0,0-95-42.41C-93-33.8-83.65-33.85-79.12-38a18.81,18.81,0,0,0,2-2.13C-75.9-41.66-75.92-41.68-73.91-40.53ZM-80.84-53c-.32-3.59-2.66-5.88-6.07-6a7.33,7.33,0,0,0-7.76,6Z" transform="translate(225.5 77.62)"/><path class="cls-1" d="M-112.49-71c.38-.59.63-1.36,1.17-1.73,1.75-1.19,3.58-2.27,5.42-3.32a14.61,14.61,0,0,1,2.37-.78v2.14q0,15.34,0,30.68c0,1.68.07,3.37.2,5.05.16,2,.81,2.86,2.81,3.32,1.2.28,1.48.86,1.12,2h-12.85c-.36-1.13-.16-1.74,1.17-2,2-.34,2.62-1.08,2.88-3a23.88,23.88,0,0,0,.21-3.17q0-12.43,0-24.88c0-.39,0-.78,0-1.16-.12-2-.59-2.53-2.6-2.69l-1.43-.08Z" transform="translate(225.5 77.62)"/><path class="cls-1" d="M-169.85-61.62v1.88c0,6.12,0,12.24,0,18.36,0,.86.09,1.72.17,2.58a3.28,3.28,0,0,0,2.85,3.18c.79.16,1.51.46,1.17,1.37-.13.36-.91.68-1.4.68-3.84.06-7.68,0-11.49,0-.53-1.33-.15-1.88,1.14-2.06,1.87-.27,2.81-1.18,2.86-3q.22-7.08.17-14.15c0-2.11-.53-2.42-2.76-2.69a5.42,5.42,0,0,1-1.42-.59c.29-.54.45-1.28.91-1.59,1.7-1.17,3.48-2.25,5.29-3.25A12,12,0,0,1-169.85-61.62Z" transform="translate(225.5 77.62)"/><path class="cls-1" d="M-172.07-70.3a3.2,3.2,0,0,1-3.29-3.13,3.23,3.23,0,0,1,3.13-3.16A3.11,3.11,0,0,1-169-73.45,3.12,3.12,0,0,1-172.07-70.3Z" transform="translate(225.5 77.62)"/><path class="cls-1" d="M-87.73-28.16c.44.63,1,1,.92,1.4s-.6.71-.94,1.06c-.36-.37-.94-.7-1-1.13S-88.23-27.55-87.73-28.16Z" transform="translate(225.5 77.62)"/><path d="M-69.81-12.43A18,18,0,0,1-67-12a1.88,1.88,0,0,1,1.16,1.23,1.74,1.74,0,0,1-1,1.37A14.07,14.07,0,0,1-70.79-9c-1-.07-2.17-.57-1.94-1.85S-71.41-12.54-69.81-12.43Zm3,1.81c-.75-.67-3.64-1.22-4.39-.8-.56.31-1,.72-.25,1.31A3.93,3.93,0,0,0-66.79-10.62Z" transform="translate(225.5 77.62)"/><path d="M-67.5-19.28c0,1.56-.92,2.75-2.15,2.74a2.42,2.42,0,0,1-2.06-2.55,2.43,2.43,0,0,1,2.15-2.62C-68.32-21.73-67.52-20.79-67.5-19.28Zm-.27,0-1.8-1.53c-.42.6-1.13,1.2-1.16,1.82s.76,1.07,1.19,1.6Z" transform="translate(225.5 77.62)"/><path d="M-61.13-19.68a2.56,2.56,0,0,1,2.69-2c1.18,0,1.79.72,2.15,2Z" transform="translate(225.5 77.62)"/><path d="M-108.66-19.61h-4.75A2.29,2.29,0,0,1-111-21.67C-109.73-21.73-109-21-108.66-19.61Z" transform="translate(225.5 77.62)"/><path d="M-134.7-47.59a41.47,41.47,0,0,1,1.69-6.5c1.56-3.64,4.64-5.14,8.53-5,3.69.17,6,2.31,7.15,5.59a18.23,18.23,0,0,1,.13,12.61A8.23,8.23,0,0,1-125.44-35a7.9,7.9,0,0,1-7.94-6A57.45,57.45,0,0,1-134.7-47.59Zm18,1.2A60.41,60.41,0,0,0-118-52.72c-1.11-3.57-3.57-5.41-6.82-5.46-3.78-.06-6.57,1.68-7.8,5.24a17.34,17.34,0,0,0,.33,12.58,6.88,6.88,0,0,0,6.49,4.5c3.32.15,5.92-1.19,7.27-4.2A41.91,41.91,0,0,0-116.73-46.39Z" transform="translate(225.5 77.62)"/><path d="M-80.84-53H-94.67a7.33,7.33,0,0,1,7.76-6C-83.5-58.91-81.16-56.62-80.84-53Zm-1.11-.83a4.89,4.89,0,0,0-5-4.27c-3.14-.13-5.91,1.7-6.39,4.27Z" transform="translate(225.5 77.62)"/><path class="cls-1" d="M-66.79-10.62a3.93,3.93,0,0,1-4.64.51c-.71-.59-.31-1,.25-1.31C-70.43-11.84-67.54-11.29-66.79-10.62Z" transform="translate(225.5 77.62)"/><path class="cls-1" d="M-67.77-19.27l-1.77,1.89c-.43-.53-1.21-1.09-1.19-1.6s.74-1.22,1.16-1.82Z" transform="translate(225.5 77.62)"/></svg>